<svg width="34" height="40" viewBox="0 0 34 40" fill="none" xmlns="http://www.w3.org/2000/svg">
<path d="M33.4531 11.3594L22.5156 0.421875C22.2961 0.202043 21.9982 0.0783985 21.6875 0.078125H2.9375C2.2123 0.078125 1.5168 0.36621 1.00401 0.879005C0.49121 1.3918 0.203125 2.0873 0.203125 2.8125V37.1875C0.203125 37.9127 0.49121 38.6082 1.00401 39.121C1.5168 39.6338 2.2123 39.9219 2.9375 39.9219H31.0625C31.7877 39.9219 32.4832 39.6338 32.996 39.121C33.5088 38.6082 33.7969 37.9127 33.7969 37.1875V12.1875C33.7966 11.8768 33.673 11.5789 33.4531 11.3594ZM22.8594 4.07812L29.7969 11.0156H22.8594V4.07812ZM31.0625 37.5781H2.9375C2.8339 37.5781 2.73454 37.537 2.66129 37.4637C2.58803 37.3905 2.54688 37.2911 2.54688 37.1875V2.8125C2.54688 2.7089 2.58803 2.60954 2.66129 2.53629C2.73454 2.46303 2.8339 2.42188 2.9375 2.42188H20.5156V12.1875C20.5156 12.4983 20.6391 12.7964 20.8589 13.0161C21.0786 13.2359 21.3767 13.3594 21.6875 13.3594H31.4531V37.1875C31.4531 37.2911 31.412 37.3905 31.3387 37.4637C31.2655 37.537 31.1661 37.5781 31.0625 37.5781Z" fill="#F4D606"/>
</svg>
