<svg width="21" height="20" viewBox="0 0 21 20" fill="none" xmlns="http://www.w3.org/2000/svg">
<path d="M20.5 12.5532V18.5106C20.5 18.9056 20.3431 19.2845 20.0638 19.5638C19.7845 19.8431 19.4056 20 19.0106 20H1.98936C1.59436 20 1.21553 19.8431 0.936224 19.5638C0.656915 19.2845 0.5 18.9056 0.5 18.5106V12.5532C0.5 12.3839 0.567249 12.2216 0.686953 12.1018C0.806657 11.9821 0.969011 11.9149 1.1383 11.9149C1.30759 11.9149 1.46994 11.9821 1.58964 12.1018C1.70935 12.2216 1.7766 12.3839 1.7766 12.5532V18.5106C1.7766 18.5671 1.79901 18.6212 1.83891 18.6611C1.87881 18.701 1.93293 18.7234 1.98936 18.7234H19.0106C19.0671 18.7234 19.1212 18.701 19.1611 18.6611C19.201 18.6212 19.2234 18.5671 19.2234 18.5106V12.5532C19.2234 12.3839 19.2907 12.2216 19.4104 12.1018C19.5301 11.9821 19.6924 11.9149 19.8617 11.9149C20.031 11.9149 20.1933 11.9821 20.3131 12.1018C20.4328 12.2216 20.5 12.3839 20.5 12.5532ZM10.0489 13.0043C10.1686 13.1238 10.3309 13.1909 10.5 13.1909C10.6692 13.1909 10.8314 13.1238 10.9511 13.0043L15.2064 8.74894C15.3191 8.62794 15.3805 8.4679 15.3776 8.30254C15.3747 8.13717 15.3077 7.9794 15.1907 7.86245C15.0738 7.7455 14.916 7.67851 14.7507 7.6756C14.5853 7.67268 14.4253 7.73406 14.3043 7.84681L11.1383 11.0117V0.638298C11.1383 0.469011 11.0711 0.306657 10.9513 0.186953C10.8316 0.067249 10.6693 0 10.5 0C10.3307 0 10.1684 0.067249 10.0487 0.186953C9.92895 0.306657 9.8617 0.469011 9.8617 0.638298V11.0117L6.69575 7.84681C6.57475 7.73406 6.41471 7.67268 6.24934 7.6756C6.08398 7.67851 5.92621 7.7455 5.80926 7.86245C5.69231 7.9794 5.62532 8.13717 5.6224 8.30254C5.61949 8.4679 5.68087 8.62794 5.79362 8.74894L10.0489 13.0043Z" fill="#12111F"/>
</svg>
