<svg width="99" height="107" viewBox="0 0 99 107" fill="none" xmlns="http://www.w3.org/2000/svg">
<g filter="url(#filter0_i_442_74)">
<path d="M14.8634 100.697H18.9279L9.45194 83.0233L0 100.697H3.84812L5.00255 98.3653H13.6849L14.8634 100.697ZM9.30764 89.6917L12.0494 95.101H6.61395L9.30764 89.6917Z" fill="#12111F"/>
<path d="M27.7159 83.3264V100.697H38.6589V97.4326H31.4437V83.3264H27.7159Z" fill="#12111F"/>
<path d="M47.9429 83.3264V100.697H58.886V97.4326H51.6708V83.3264H47.9429Z" fill="#12111F"/>
<path d="M71.8978 83.3264H68.17V100.697H71.8978V83.3264Z" fill="#12111F"/>
<path d="M95.2721 93.3756L82.5252 83V100.697H86.2531V90.7176L99 101V83.3264H95.2721V93.3756Z" fill="#12111F"/>
</g>
<g filter="url(#filter1_i_442_74)">
<path d="M29.5 25C30.1667 29.5 34.3 39 45.5 41C44.6667 36.6667 40.3 27.4 29.5 25Z" fill="#F4CE04"/>
<path d="M71.5 25C70.8333 29.5 66.7 39 55.5 41C56.3333 36.6667 60.7 27.4 71.5 25Z" fill="#F4CE04"/>
<path d="M50.5192 6C54.3712 11.2173 59.4753 25 50.5192 38.5C46.5387 33 41.5631 18.5 50.5192 6Z" fill="#F4CE04"/>
<path d="M74.5 46.3864C71.5938 48.3587 63.925 51.1199 56.5 46.3864C59.4062 44.5856 67.075 42.0644 74.5 46.3864Z" fill="#F4CE04"/>
<path d="M44.5 46.3864C41.5938 48.3587 33.925 51.1199 26.5 46.3864C29.4062 44.5856 37.075 42.0644 44.5 46.3864Z" fill="#F4CE04"/>
<path d="M54.5 58.3429C54.5 61.4672 52.7091 64 50.5 64C48.2909 64 46.5 61.4672 46.5 58.3429C46.5 55.2185 48.5 53.5366 50.5 47.5C52.5 53.5366 54.5 55.2185 54.5 58.3429Z" fill="#F4CE04"/>
</g>
<defs>
<filter id="filter0_i_442_74" x="0" y="83" width="99" height="18" filterUnits="userSpaceOnUse" color-interpolation-filters="sRGB">
<feFlood flood-opacity="0" result="BackgroundImageFix"/>
<feBlend mode="normal" in="SourceGraphic" in2="BackgroundImageFix" result="shape"/>
<feColorMatrix in="SourceAlpha" type="matrix" values="0 0 0 0 0 0 0 0 0 0 0 0 0 0 0 0 0 0 127 0" result="hardAlpha"/>
<feOffset/>
<feGaussianBlur stdDeviation="0.5"/>
<feComposite in2="hardAlpha" operator="arithmetic" k2="-1" k3="1"/>
<feColorMatrix type="matrix" values="0 0 0 0 1 0 0 0 0 0.912987 0 0 0 0 0.604486 0 0 0 0.9 0"/>
<feBlend mode="normal" in2="shape" result="effect1_innerShadow_442_74"/>
</filter>
<filter id="filter1_i_442_74" x="26.5" y="6" width="48" height="58" filterUnits="userSpaceOnUse" color-interpolation-filters="sRGB">
<feFlood flood-opacity="0" result="BackgroundImageFix"/>
<feBlend mode="normal" in="SourceGraphic" in2="BackgroundImageFix" result="shape"/>
<feColorMatrix in="SourceAlpha" type="matrix" values="0 0 0 0 0 0 0 0 0 0 0 0 0 0 0 0 0 0 127 0" result="hardAlpha"/>
<feOffset/>
<feGaussianBlur stdDeviation="1"/>
<feComposite in2="hardAlpha" operator="arithmetic" k2="-1" k3="1"/>
<feColorMatrix type="matrix" values="0 0 0 0 1 0 0 0 0 0.912987 0 0 0 0 0.604486 0 0 0 1 0"/>
<feBlend mode="normal" in2="shape" result="effect1_innerShadow_442_74"/>
</filter>
</defs>
</svg>
