<svg width="54" height="60" viewBox="0 0 54 60" fill="none" xmlns="http://www.w3.org/2000/svg">
<path d="M21.518 23.8182C18.8595 23.8182 15.1895 26.8136 11.835 30.1951C8.48042 33.5766 0 41.0242 0 44.298C0 47.5718 16.7713 59.964 22.5932 59.964C28.4152 59.964 36.2632 60.5409 40.8204 57.0748C45.3775 53.6087 53.2862 45.5826 53.6047 44.1703C54.0255 42.079 54.111 39.9324 53.8579 37.8135C53.659 37.3183 53.3292 36.8885 52.9048 36.5714C52.4804 36.2543 51.9779 36.0623 51.4527 36.0166C50.2183 36.0166 46.9911 37.3642 46.9911 39.6442C47.1146 41.114 47.3901 42.5666 47.8131 43.978C45.119 46.1154 42.309 48.0979 39.3963 49.9164C39.3963 49.9164 39.5859 38.2627 38.9869 35.375C38.3878 32.4874 33.1331 27.8628 33.1331 26.9643C33.1331 26.0659 34.9347 20.0952 34.9347 20.0952C34.9347 20.0952 38.6381 20.929 39.0491 18.649C39.46 16.3691 39.1749 16.2752 39.1749 16.2752C39.4877 15.9589 39.7269 15.5756 39.8749 15.1535C40.0228 14.7313 40.0759 14.2809 40.0302 13.8352C39.777 12.4876 39.0172 12.7753 39.0491 12.0045C39.0809 11.2337 40.4716 0 30.0924 0C19.7133 0 19.6512 8.66761 19.6512 10.3045C19.6512 11.9414 24.4282 18.6183 23.9535 21.2829C23.4789 23.9475 23.5426 23.7228 23.5426 23.7228C23.5426 23.7228 22.4931 23.8182 21.518 23.8182Z" fill="#F4D606"/>
</svg>
