<svg width="60" height="60" viewBox="0 0 60 60" fill="none" xmlns="http://www.w3.org/2000/svg">
<path d="M13.8994 21.667C13.9586 20.4207 15.3302 18.3535 16.0086 17.4756L4.57455 6.0143C4.0195 4.38226 5.72165 4.15971 6.20269 4.60481L18.2288 16.6596C18.3028 16.808 18.321 16.9193 18.2288 16.9934C15.831 18.9222 14.9355 21.7783 14.7875 22.9652C14.2842 27.1195 15.6755 29.4933 16.8226 30.977L27.9606 42.2529C28.8191 43.0837 29.6998 43.6871 30.0328 43.8849C32.0754 45.2202 34.6089 45.3068 35.6203 45.1831L32.179 41.6223C31.3205 40.8508 30.9332 39.199 30.8469 38.4695L20.2639 27.75C19.9556 27.3791 19.3389 26.2144 19.3389 24.523C19.4277 22.1195 20.8807 20.7768 21.5961 20.4059L23.1872 22.0379C23.4092 23.1877 22.4101 23.4474 21.8921 23.1136L21.226 22.4459C19.7163 25.0868 21.1644 27.206 22.0771 27.9355C22.6322 27.9973 24.0605 27.9206 25.3334 27.1195C26.9911 26.1402 27.7016 24.2139 27.8496 23.3732C28.3233 21.3257 27.1589 19.4044 26.5175 18.6997C20.819 12.9381 9.28877 1.31849 8.75592 0.932734C8.22307 0.546981 7.59649 0.302174 7.3498 0.22799C5.73398 -0.21711 2.12493 -0.313548 0.615194 2.8615C-0.89454 6.03655 0.726204 8.63544 1.72529 9.538L13.8994 21.667Z" fill="#F4D606"/>
<path d="M32.586 17.8465C28.5009 15.7101 25.6541 15.1759 24.7413 15.1759C27.1466 17.5127 28.5157 18.5142 29.0707 21.3703L34.6582 24.0409C36.6712 22.8242 36.8291 20.715 36.6564 19.8124L32.586 17.8465Z" fill="#F4D606"/>
<path d="M40.1347 23.6328C37.8257 23.4845 36.4097 24.9558 35.9903 25.71L38.8766 31.4963C39.6167 32.9503 40.043 34.8716 40.0977 35.8731C40.2161 38.0393 38.9383 39.2237 38.2845 39.5452L36.8044 37.9873C36.2494 36.8375 37.5075 36.4295 37.9515 36.8375L38.6176 37.431C39.4464 36.066 38.3709 33.252 37.7295 32.0156C35.1245 31.8375 33.3631 33.6723 32.8081 34.612C31.4019 37.06 32.068 39.6565 33.1411 40.9918L50.2736 58.2023C51.6057 59.5376 53.2092 59.9827 53.8259 59.9827C56.9712 60.2052 58.7104 58.227 59.2284 57.1637C60.6197 54.3744 59.8945 52.4531 58.8954 51.192L45.8702 38.0986C45.515 40.0867 44.3901 41.7954 43.872 42.4012L55.3801 53.9367C56.0461 55.3091 54.455 55.9768 53.8259 55.4204C50.6313 52.1687 43.9831 45.4428 42.947 44.5526C41.9109 43.6624 41.6518 43.0689 41.6518 42.8834C42.5695 42.2009 43.2923 41.239 43.539 40.8434C44.1927 39.8543 45.3152 37.0749 44.5751 33.8701C43.835 30.6654 41.3065 25.71 40.1347 23.6328Z" fill="#F4D606"/>
<path d="M49.135 29.5144C49.4128 29.0225 50.0282 28.854 50.5094 29.1379L55.4967 32.0809C55.978 32.3648 56.1429 32.9938 55.865 33.4856C55.5872 33.9775 54.9718 34.146 54.4906 33.8621L49.5033 30.9191C49.022 30.6352 48.8571 30.0062 49.135 29.5144Z" fill="#F4D606"/>
<path d="M50 23C50 22.4477 50.4637 22 51.0358 22H56.9642C57.5363 22 58 22.4477 58 23C58 23.5523 57.5363 24 56.9642 24H51.0358C50.4637 24 50 23.5523 50 23Z" fill="#F4D606"/>
<path d="M48.135 16.4856C47.8571 15.9938 48.022 15.3648 48.5033 15.0809L53.4906 12.1379C53.9718 11.854 54.5872 12.0225 54.865 12.5144C55.1429 13.0062 54.978 13.6352 54.4967 13.9191L49.5094 16.8621C49.0282 17.146 48.4128 16.9775 48.135 16.4856Z" fill="#F4D606"/>
<path d="M43.5144 12.5908C43.0225 12.2835 42.854 11.6031 43.1379 11.071L46.0809 5.55646C46.3648 5.02434 46.9938 4.84202 47.4856 5.14924C47.9775 5.45646 48.146 6.13689 47.8621 6.66901L44.9191 12.1835C44.6352 12.7157 44.0062 12.898 43.5144 12.5908Z" fill="#F4D606"/>
<path d="M37 11C36.4477 11 36 10.5363 36 9.96419V4.03581C36 3.46375 36.4477 3 37 3C37.5523 3 38 3.46375 38 4.03581V9.96419C38 10.5363 37.5523 11 37 11Z" fill="#F4D606"/>
<path d="M30.4856 11.865C29.9938 12.1429 29.3648 11.978 29.0809 11.4967L26.1379 6.50944C25.854 6.02819 26.0225 5.41282 26.5144 5.13497C27.0062 4.85712 27.6352 5.02201 27.9191 5.50326L30.8621 10.4906C31.146 10.9718 30.9775 11.5872 30.4856 11.865Z" fill="#F4D606"/>
</svg>
