<svg width="60" height="60" viewBox="0 0 60 60" fill="none" xmlns="http://www.w3.org/2000/svg">
<g clip-path="url(#clip0_444_1816)">
<path fill-rule="evenodd" clip-rule="evenodd" d="M12.6272 2.54152C12.5828 3.32922 12.4427 4.49289 12.3157 5.12757C12.1888 5.76226 11.9518 6.72736 11.7891 7.27228C11.6264 7.81719 11.2454 8.88729 10.9425 9.65026C10.6395 10.4132 9.54868 12.7764 8.51828 14.9017C7.48801 17.027 6.47397 19.1939 6.26505 19.7171C6.05612 20.2403 5.70752 21.1924 5.49053 21.833C5.27343 22.4735 4.98233 23.5436 4.84372 24.211C4.70511 24.8783 4.54515 26.0352 4.48836 26.7817C4.42611 27.6004 4.43014 28.6552 4.49879 29.4391C4.5614 30.1541 4.71376 31.2043 4.83755 31.7729C4.96134 32.3416 5.2305 33.3128 5.43575 33.931C5.641 34.5492 6.17552 35.8044 6.62349 36.7202C7.07134 37.6361 7.83827 39.0133 8.32762 39.7808C8.81697 40.5482 9.67377 41.7722 10.2317 42.5006C10.7894 43.2291 11.8843 44.5584 12.6646 45.4547C13.445 46.351 14.1673 47.1543 14.27 47.2398C14.3727 47.3251 14.4879 47.3638 14.526 47.3255C14.5642 47.2872 14.4583 46.8916 14.2906 46.4465C14.1231 46.0013 13.8478 45.1556 13.6789 44.567C13.5101 43.9785 13.2608 42.8816 13.1252 42.1296C12.9333 41.0659 12.8776 40.2605 12.8745 38.5032C12.8714 36.7707 12.93 35.8561 13.1255 34.5795C13.2658 33.664 13.5905 32.0856 13.8469 31.072C14.1034 30.0584 14.6684 27.9984 15.1024 26.4944C15.5362 24.9903 16.0246 23.1979 16.1874 22.5112C16.3504 21.8246 16.5865 20.7041 16.7122 20.0211C16.838 19.3383 16.941 18.6293 16.941 18.4457C16.941 18.2621 16.9867 18.112 17.0427 18.112C17.0985 18.112 17.1786 18.4408 17.2206 18.8428C17.2624 19.2447 17.2962 20.3015 17.2955 21.1911C17.2949 22.0807 17.2147 23.5238 17.1173 24.398C17.0199 25.2724 16.7031 27.6534 16.4132 29.6891C16.1234 31.7249 15.8231 34.1056 15.7459 34.9796C15.6603 35.9496 15.6314 37.5246 15.6721 39.0222C15.7088 40.3716 15.8173 41.9572 15.9134 42.5458C16.0096 43.1343 16.1756 43.9904 16.2823 44.4481C16.3889 44.9059 16.5753 45.6024 16.6962 45.996C16.8172 46.3894 17.1114 47.2187 17.3498 47.8389C17.5882 48.459 18.0791 49.5281 18.4408 50.2148C18.8023 50.9014 19.4302 51.9715 19.836 52.5927C20.2418 53.214 21.0074 54.2624 21.5374 54.9226C22.0673 55.5827 23.0172 56.6672 23.6483 57.3327C24.2792 57.9981 25.3626 59.041 26.0557 59.6502C26.7489 60.2595 27.4628 60.8531 27.6421 60.9694C27.8215 61.0857 27.9682 61.1405 27.9682 61.0913C27.9682 61.042 27.6791 60.6212 27.3257 60.1562C26.9723 59.691 26.4181 58.8799 26.0942 58.3535C25.7702 57.8272 25.3185 57.0246 25.0903 56.57C24.8621 56.1155 24.5096 55.2721 24.3068 54.6958C24.1042 54.1196 23.8337 53.1298 23.706 52.4962C23.5783 51.8627 23.4396 50.8092 23.3977 50.1553C23.3461 49.3473 23.3824 48.4825 23.5112 47.4563C23.6154 46.6258 23.8571 45.3417 24.0481 44.6027C24.2392 43.8638 24.5804 42.7509 24.8062 42.1296C25.0321 41.5084 25.5097 40.3313 25.8676 39.5138C26.2254 38.6964 27.0369 36.9575 27.6708 35.6496C28.3047 34.3417 29.1182 32.6296 29.4787 31.8448C29.839 31.0601 30.3208 29.9365 30.5491 29.3479C30.7774 28.7594 31.1431 27.6625 31.3616 26.9105C31.5803 26.1585 31.8466 24.9546 31.9534 24.2353C32.093 23.2954 32.1296 22.4924 32.0837 21.3817C32.0386 20.2884 31.9328 19.4995 31.7226 18.6862C31.5591 18.0539 31.2434 17.1157 31.0211 16.6012C30.7988 16.0868 30.3992 15.2933 30.1331 14.838C29.867 14.3826 29.3198 13.5672 28.917 13.0261C28.5142 12.4848 27.7525 11.5843 27.2244 11.0247C26.6962 10.4652 25.7271 9.54266 25.0708 8.97468C24.4145 8.4067 23.4506 7.61649 22.9289 7.21866C22.4072 6.82082 21.26 6.01385 20.3796 5.42518C19.4992 4.83663 18.0585 3.92812 17.1781 3.40627C16.2977 2.88442 15.0115 2.15414 14.3199 1.78341C13.6283 1.41269 12.9827 1.10938 12.8852 1.10938C12.7422 1.10938 12.6924 1.38605 12.6272 2.54152ZM40.5962 31.3644C40.0745 31.4468 39.2313 31.6324 38.7224 31.7767C38.2135 31.921 37.4218 32.1994 36.9629 32.3951C36.504 32.5909 35.7549 32.9752 35.2981 33.2491C34.8414 33.5231 34.0442 34.0866 33.5268 34.5013C33.0094 34.9161 32.21 35.691 31.7505 36.2233C31.2911 36.7557 30.6506 37.5935 30.3272 38.085C30.0039 38.5765 29.3978 39.6743 28.9803 40.5245C28.563 41.3746 28.0091 42.7191 27.7497 43.5122C27.4902 44.3052 27.1399 45.5893 26.9712 46.3657C26.8025 47.1422 26.5887 48.2875 26.4961 48.911C26.4034 49.5345 26.2897 50.4307 26.2433 50.9026C26.1717 51.6304 26.1865 51.7604 26.3406 51.7604C26.4404 51.7604 27.4689 51.3558 28.6263 50.8612C29.7836 50.3666 31.1593 49.7457 31.6837 49.4813C32.208 49.217 33.0524 48.7424 33.5598 48.4268C34.0673 48.1111 34.9245 47.5162 35.4644 47.1049C36.0043 46.6936 36.953 45.8955 37.5726 45.3316C38.1921 44.7676 39.204 43.7306 39.8213 43.0271C40.4386 42.3235 40.9632 41.8069 40.9871 41.879C41.0112 41.9511 40.7784 42.4783 40.47 43.0507C40.1616 43.6231 39.6201 44.5403 39.2665 45.0888C38.9129 45.6373 38.341 46.4398 37.9955 46.8723C37.65 47.3047 37.0103 48.0202 36.5741 48.4623C36.1379 48.9045 35.3043 49.6356 34.7217 50.0871C34.1393 50.5384 33.0617 51.257 32.3273 51.6838C31.5927 52.1105 30.4049 52.722 29.6875 53.0425C28.9701 53.3631 28.2898 53.6589 28.1757 53.6998C28.0616 53.7408 27.9682 53.8216 27.9682 53.8792C27.9682 53.937 28.4083 54.0187 28.9464 54.0607C29.4845 54.1026 30.4582 54.1364 31.1104 54.1357C31.7625 54.1349 32.803 54.0816 33.4225 54.0173C34.0421 53.9529 34.9737 53.8143 35.4928 53.7092C36.0118 53.6041 36.8389 53.3862 37.3307 53.2248C37.8224 53.0636 38.8117 52.6446 39.529 52.2937C40.2464 51.943 41.289 51.3097 41.8461 50.8867C42.403 50.4635 43.3723 49.5807 44.0003 48.9248C44.6281 48.2689 45.5374 47.2073 46.021 46.5657C46.5046 45.9243 47.611 44.3292 48.4798 43.0214C49.3486 41.7135 50.5131 40.0281 51.0677 39.276C51.6222 38.524 52.6145 37.3698 53.2725 36.7114C53.9307 36.0528 54.736 35.2943 55.062 35.0259C55.4827 34.6794 55.6185 34.5003 55.5294 34.409C55.4603 34.3381 54.7667 34.0091 53.988 33.6778C53.2092 33.3465 51.878 32.8444 51.0299 32.562C50.1817 32.2798 48.9545 31.9322 48.3027 31.7898C47.6509 31.6473 46.5574 31.4554 45.8727 31.3632C45.1879 31.271 43.934 31.1998 43.0862 31.2049C42.2384 31.2101 41.1179 31.2818 40.5962 31.3644Z" fill="#F4D606"/>
</g>
<defs>
<clipPath id="clip0_444_1816">
<rect width="60" height="60" fill="white"/>
</clipPath>
</defs>
</svg>
