<svg width="60" height="60" viewBox="0 0 60 60" fill="none" xmlns="http://www.w3.org/2000/svg">
<path d="M41.25 7.5C48.845 7.5 55 13.75 55 22.5C55 40 36.25 50 30 53.75C23.75 50 5 40 5 22.5C5 13.75 11.25 7.5 18.75 7.5C23.4 7.5 27.5 10 30 12.5C32.5 10 36.6 7.5 41.25 7.5Z" fill="#F4D606"/>
<path d="M18.1875 25.9297C18.5625 28.4368 20.8875 33.7297 27.1875 34.844C26.7188 32.4297 24.2625 27.2668 18.1875 25.9297Z" fill="#12111F"/>
<path d="M41.8125 25.9297C41.4375 28.4368 39.1125 33.7297 32.8125 34.844C33.2812 32.4297 35.7375 27.2668 41.8125 25.9297Z" fill="#12111F"/>
<path d="M30.0108 15.3438C32.1776 18.2505 35.0486 25.9295 30.0108 33.4509C27.7718 30.3866 24.973 22.308 30.0108 15.3438Z" fill="#12111F"/>
<path d="M43.5 37.8452C41.8652 38.944 37.5516 40.4824 33.375 37.8452C35.0098 36.8419 39.3234 35.4372 43.5 37.8452Z" fill="#12111F"/>
<path d="M26.625 37.8452C24.9902 38.944 20.6766 40.4824 16.5 37.8452C18.1348 36.8419 22.4484 35.4372 26.625 37.8452Z" fill="#12111F"/>
<path d="M32.25 44.5059C32.25 46.2466 31.2426 47.6577 30 47.6577C28.7574 47.6577 27.75 46.2466 27.75 44.5059C27.75 42.7652 28.875 41.8281 30 38.4648C31.125 41.8281 32.25 42.7652 32.25 44.5059Z" fill="#12111F"/>
</svg>
